<svg xmlns="http://www.w3.org/2000/svg" viewBox="0 0 786 294" width="786" height="294" font-family="ui-monospace, 'SF Mono', Menlo, Consolas, monospace" role="img" aria-label="A derived value is worked out from related Things, then judged by ranges.">
<rect width="786" height="294" fill="#ffffff"/>
<path d="M 152.2,45.0 L 241.1,45.0 L 241.1,93.0 L 330.0,93.0" fill="none" stroke="#47574d" stroke-width="1.2" stroke-dasharray="2 3"/>
<path d="M 0,0 l -7,-4 l 0,8 z" fill="#47574d" transform="translate(330.0,93.0) rotate(0.0)"/>
<path d="M 137.3,111.0 L 233.6,111.0 L 233.6,93.0 L 330.0,93.0" fill="none" stroke="#47574d" stroke-width="1.2" stroke-dasharray="2 3"/>
<path d="M 0,0 l -7,-4 l 0,8 z" fill="#47574d" transform="translate(330.0,93.0) rotate(0.0)"/>
<path d="M 263.8,177.0 L 296.9,177.0 L 296.9,93.0 L 330.0,93.0" fill="none" stroke="#9a3a20" stroke-width="1.2" stroke-dasharray="4 4"/>
<path d="M 0,0 l -7,-4 l 0,8 z" fill="#9a3a20" transform="translate(330.0,93.0) rotate(0.0)"/>
<text x="271.8" y="207.0" font-size="11" fill="#9a3a20" text-anchor="start">cannot contribute: by policy the</text>
<text x="271.8" y="220.0" font-size="11" fill="#9a3a20" text-anchor="start">total is withheld, or it is skipped</text>
<path d="M 508.4,93.0 L 534.2,93.0 L 534.2,49.0 L 560.0,49.0" fill="none" stroke="#47574d" stroke-width="1.2"/>
<path d="M 0,0 l -7,-4 l 0,8 z" fill="#47574d" transform="translate(560.0,49.0) rotate(0.0)"/>
<path d="M 508.4,93.0 L 534.2,93.0 L 534.2,129.0 L 560.0,129.0" fill="none" stroke="#47574d" stroke-width="1.2"/>
<path d="M 0,0 l -7,-4 l 0,8 z" fill="#47574d" transform="translate(560.0,129.0) rotate(0.0)"/>
<text x="528.2" y="145.0" font-size="11" fill="#74857a" text-anchor="end">judged by</text>
<path d="M 508.4,93.0 L 534.2,93.0 L 534.2,201.0 L 560.0,201.0" fill="none" stroke="#47574d" stroke-width="1.2"/>
<path d="M 0,0 l -7,-4 l 0,8 z" fill="#47574d" transform="translate(560.0,201.0) rotate(0.0)"/>
<rect x="24.0" y="24.0" width="128.2" height="42.0" rx="2" fill="#ffffff" stroke="#d6ddd2"/>
<text x="88.1" y="41.0" font-size="12" font-weight="normal" fill="#47574d" text-anchor="middle">Reservoir-01</text>
<text x="88.1" y="57.0" font-size="12" font-weight="normal" fill="#47574d" text-anchor="middle">quantity 2 412</text>
<rect x="24.0" y="90.0" width="113.3" height="42.0" rx="2" fill="#ffffff" stroke="#d6ddd2"/>
<text x="80.6" y="107.0" font-size="12" font-weight="normal" fill="#47574d" text-anchor="middle">Reservoir-02</text>
<text x="80.6" y="123.0" font-size="12" font-weight="normal" fill="#47574d" text-anchor="middle">quantity 588</text>
<rect x="24.0" y="156.0" width="239.8" height="42.0" rx="2" fill="#ffffff" stroke="#d6ddd2"/>
<text x="143.9" y="173.0" font-size="12" font-weight="normal" fill="#47574d" text-anchor="middle">Reservoir-03</text>
<text x="143.9" y="189.0" font-size="12" font-weight="normal" fill="#47574d" text-anchor="middle">quantity: nothing written yet</text>
<rect x="330.0" y="80.0" width="178.4" height="26.0" rx="2" fill="#e7ebe3" stroke="#74857a"/>
<text x="419.2" y="97.0" font-size="13" font-weight="700" fill="#16201a" text-anchor="middle">Alder Hollow study</text>
<text x="24.0" y="253.0" font-size="11" font-weight="normal" fill="#74857a" text-anchor="start">storedM3      = Sum of quantity over every Reservoir</text>
<text x="24.0" y="269.0" font-size="11" font-weight="normal" fill="#74857a" text-anchor="start">daysOfSupply  = storedM3 / dailyDemandM3</text>
<rect x="560.0" y="20.0" width="210.0" height="58.0" rx="2" fill="#dbeade" stroke="#1f6047"/>
<text x="665.0" y="37.0" font-size="12" font-weight="normal" fill="#1f6047" text-anchor="middle">WaterResilient</text>
<text x="665.0" y="53.0" font-size="12" font-weight="normal" fill="#1f6047" text-anchor="middle">daysOfSupply IS KNOWN AND</text>
<text x="665.0" y="69.0" font-size="12" font-weight="normal" fill="#1f6047" text-anchor="middle">daysOfSupply &gt;= 14</text>
<rect x="560.0" y="100.0" width="210.0" height="58.0" rx="2" fill="#dbeade" stroke="#1f6047"/>
<text x="665.0" y="117.0" font-size="12" font-weight="normal" fill="#1f6047" text-anchor="middle">WaterShortOfTarget</text>
<text x="665.0" y="133.0" font-size="12" font-weight="normal" fill="#1f6047" text-anchor="middle">daysOfSupply IS KNOWN AND</text>
<text x="665.0" y="149.0" font-size="12" font-weight="normal" fill="#1f6047" text-anchor="middle">daysOfSupply &lt; 14</text>
<rect x="560.0" y="180.0" width="195.1" height="42.0" rx="2" fill="#dbeade" stroke="#1f6047"/>
<text x="657.6" y="197.0" font-size="12" font-weight="normal" fill="#1f6047" text-anchor="middle">WaterNotAssessed</text>
<text x="657.6" y="213.0" font-size="12" font-weight="normal" fill="#1f6047" text-anchor="middle">daysOfSupply IS UNKNOWN</text>
</svg>